# xmcd
#
# Track frame offsets:
#	150
#	13551
#	26679
#	43808
#	63155
#	80466
#	109259
#	122244
#	133270
#	144194
#	158009
#	171763
#	192433
#	209327
#	226866
#	242903
#	253916
#	267812
#	280826
#	299699
#
# Disc length: 4289
#
# Revision: 1
# Processed by: cddbd v1.5.1PL0 Copyright (c) Steve Scherf et al.
# Submitted via: VisiTrax 2.9.10.228 - For more info visit www.synapsa.com
# Normalized: r0:DSETVAR1
#
DISCID=2910bf14
DTITLE=Various Artist - Outlaws 20 Classic Country Songs
DYEAR=1999
DGENRE=
TTITLE0=Tammy Wynette - Divorce
TTITLE1=Lynn Anderson - Rose Garden
TTITLE2=Johnny Cash - A Boy Named Sue
TTITLE3=Kris Kristofferson - Me and Bobby McGhee
TTITLE4=Dr Hook - Sylvia's Mother
TTITLE5=Chet Atkins - Why Worry
TTITLE6=Jim Reeves - Distant Drums
TTITLE7=Patsy Cline - A Stranger In My Arms
TTITLE8=Tammy Wynette, Dolly Parton, Lorreta Lynn - Silver Threads and Golden Needles
TTITLE9=Johnny Cash, Willie Nelson, Kris Kristofferson, Waylon Jennings - Highwaymen
TTITLE10=George Jones and Tammy Wynette - Golden Ring
TTITLE11=Patty Loveless - Lonely Too Long
TTITLE12=Dolly Parton - Jolene
TTITLE13=Tom Waits and Crystal Gayle - Pickin' Up After You
TTITLE14=Willie Nelson - Always On My Mind
TTITLE15=Roger Miller - King Of The Road
TTITLE16=John Denver - Country Roads (Live)
TTITLE17=George Jones - Tennessee Whiskey
TTITLE18=Billy Ray Cyrus - Harper Valley PTA
TTITLE19=Mary Chapin Carpenter - Come On Come On
EXTD=
EXTT0=
EXTT1=
EXTT2=
EXTT3=
EXTT4=
EXTT5=
EXTT6=
EXTT7=
EXTT8=
EXTT9=
EXTT10=
EXTT11=
EXTT12=
EXTT13=
EXTT14=
EXTT15=
EXTT16=
EXTT17=
EXTT18=
EXTT19=
PLAYORDER=
